<?xml version="1.0" encoding="utf-8" ?>
<svg baseProfile="tiny" height="32px" version="1.2" width="32px" xmlns="http://www.w3.org/2000/svg" xmlns:ev="http://www.w3.org/2001/xml-events" xmlns:xlink="http://www.w3.org/1999/xlink"><defs /><rect fill="rgb(255,84,84)" height="1" width="1" x="6" y="3" /><rect fill="rgb(255,84,84)" height="1" width="1" x="7" y="3" /><rect fill="rgb(255,84,84)" height="1" width="1" x="8" y="3" /><rect fill="rgb(255,84,84)" height="1" width="1" x="9" y="3" /><rect fill="rgb(255,84,84)" height="1" width="1" x="10" y="3" /><rect fill="rgb(255,84,84)" height="1" width="1" x="11" y="3" /><rect fill="rgb(255,84,84)" height="1" width="1" x="20" y="3" /><rect fill="rgb(255,84,84)" height="1" width="1" x="21" y="3" /><rect fill="rgb(255,84,84)" height="1" width="1" x="22" y="3" /><rect fill="rgb(255,84,84)" height="1" width="1" x="23" y="3" /><rect fill="rgb(255,84,84)" height="1" width="1" x="24" y="3" /><rect fill="rgb(255,84,84)" height="1" width="1" x="25" y="3" /><rect fill="rgb(255,84,84)" height="1" width="1" x="6" y="4" /><rect fill="rgb(255,84,84)" height="1" width="1" x="7" y="4" /><rect fill="rgb(255,84,84)" height="1" width="1" x="8" y="4" /><rect fill="rgb(255,84,84)" height="1" width="1" x="9" y="4" /><rect fill="rgb(255,84,84)" height="1" width="1" x="10" y="4" /><rect fill="rgb(255,84,84)" height="1" width="1" x="11" y="4" /><rect fill="rgb(255,84,84)" height="1" width="1" x="20" y="4" /><rect fill="rgb(255,84,84)" height="1" width="1" x="21" y="4" /><rect fill="rgb(255,84,84)" height="1" width="1" x="22" y="4" /><rect fill="rgb(255,84,84)" height="1" width="1" x="23" y="4" /><rect fill="rgb(255,84,84)" height="1" width="1" x="24" y="4" /><rect fill="rgb(255,84,84)" height="1" width="1" x="25" y="4" /><rect fill="rgb(255,84,84)" height="1" width="1" x="6" y="5" /><rect fill="rgb(255,140,140)" height="1" width="1" x="7" y="5" /><rect fill="rgb(255,140,140)" height="1" width="1" x="8" y="5" /><rect fill="rgb(255,140,140)" height="1" width="1" x="9" y="5" /><rect fill="rgb(255,140,140)" height="1" width="1" x="10" y="5" /><rect fill="rgb(255,84,84)" height="1" width="1" x="11" y="5" /><rect fill="rgb(255,84,84)" height="1" width="1" x="20" y="5" /><rect fill="rgb(255,140,140)" height="1" width="1" x="21" y="5" /><rect fill="rgb(255,140,140)" height="1" width="1" x="22" y="5" /><rect fill="rgb(255,140,140)" height="1" width="1" x="23" y="5" /><rect fill="rgb(255,140,140)" height="1" width="1" x="24" y="5" /><rect fill="rgb(255,84,84)" height="1" width="1" x="25" y="5" /><rect fill="rgb(255,84,84)" height="1" width="1" x="6" y="6" /><rect fill="rgb(255,140,140)" height="1" width="1" x="7" y="6" /><rect fill="rgb(255,140,140)" height="1" width="1" x="8" y="6" /><rect fill="rgb(255,140,140)" height="1" width="1" x="9" y="6" /><rect fill="rgb(255,140,140)" height="1" width="1" x="10" y="6" /><rect fill="rgb(255,84,84)" height="1" width="1" x="11" y="6" /><rect fill="rgb(255,84,84)" height="1" width="1" x="12" y="6" /><rect fill="rgb(255,84,84)" height="1" width="1" x="13" y="6" /><rect fill="rgb(255,84,84)" height="1" width="1" x="14" y="6" /><rect fill="rgb(255,84,84)" height="1" width="1" x="15" y="6" /><rect fill="rgb(255,84,84)" height="1" width="1" x="16" y="6" /><rect fill="rgb(255,84,84)" height="1" width="1" x="17" y="6" /><rect fill="rgb(255,84,84)" height="1" width="1" x="18" y="6" /><rect fill="rgb(255,84,84)" height="1" width="1" x="19" y="6" /><rect fill="rgb(255,84,84)" height="1" width="1" x="20" y="6" /><rect fill="rgb(255,140,140)" height="1" width="1" x="21" y="6" /><rect fill="rgb(255,140,140)" height="1" width="1" x="22" y="6" /><rect fill="rgb(255,140,140)" height="1" width="1" x="23" y="6" /><rect fill="rgb(255,140,140)" height="1" width="1" x="24" y="6" /><rect fill="rgb(255,84,84)" height="1" width="1" x="25" y="6" /><rect fill="rgb(255,84,84)" height="1" width="1" x="6" y="7" /><rect fill="rgb(255,140,140)" height="1" width="1" x="7" y="7" /><rect fill="rgb(255,140,140)" height="1" width="1" x="8" y="7" /><rect fill="rgb(255,140,140)" height="1" width="1" x="9" y="7" /><rect fill="rgb(255,140,140)" height="1" width="1" x="10" y="7" /><rect fill="rgb(255,140,140)" height="1" width="1" x="11" y="7" /><rect fill="rgb(255,140,140)" height="1" width="1" x="12" y="7" /><rect fill="rgb(255,140,140)" height="1" width="1" x="13" y="7" /><rect fill="rgb(255,140,140)" height="1" width="1" x="14" y="7" /><rect fill="rgb(255,140,140)" height="1" width="1" x="15" y="7" /><rect fill="rgb(255,140,140)" height="1" width="1" x="16" y="7" /><rect fill="rgb(255,140,140)" height="1" width="1" x="17" y="7" /><rect fill="rgb(255,140,140)" height="1" width="1" x="18" y="7" /><rect fill="rgb(255,140,140)" height="1" width="1" x="19" y="7" /><rect fill="rgb(255,140,140)" height="1" width="1" x="20" y="7" /><rect fill="rgb(255,140,140)" height="1" width="1" x="21" y="7" /><rect fill="rgb(255,140,140)" height="1" width="1" x="22" y="7" /><rect fill="rgb(255,140,140)" height="1" width="1" x="23" y="7" /><rect fill="rgb(255,140,140)" height="1" width="1" x="24" y="7" /><rect fill="rgb(255,84,84)" height="1" width="1" x="25" y="7" /><rect fill="rgb(255,84,84)" height="1" width="1" x="6" y="8" /><rect fill="rgb(255,140,140)" height="1" width="1" x="7" y="8" /><rect fill="rgb(255,140,140)" height="1" width="1" x="8" y="8" /><rect fill="rgb(255,140,140)" height="1" width="1" x="9" y="8" /><rect fill="rgb(255,140,140)" height="1" width="1" x="10" y="8" /><rect fill="rgb(255,140,140)" height="1" width="1" x="11" y="8" /><rect fill="rgb(255,140,140)" height="1" width="1" x="12" y="8" /><rect fill="rgb(255,140,140)" height="1" width="1" x="13" y="8" /><rect fill="rgb(255,140,140)" height="1" width="1" x="14" y="8" /><rect fill="rgb(255,140,140)" height="1" width="1" x="15" y="8" /><rect fill="rgb(255,140,140)" height="1" width="1" x="16" y="8" /><rect fill="rgb(255,140,140)" height="1" width="1" x="17" y="8" /><rect fill="rgb(255,140,140)" height="1" width="1" x="18" y="8" /><rect fill="rgb(255,140,140)" height="1" width="1" x="19" y="8" /><rect fill="rgb(255,140,140)" height="1" width="1" x="20" y="8" /><rect fill="rgb(255,140,140)" height="1" width="1" x="21" y="8" /><rect fill="rgb(255,140,140)" height="1" width="1" x="22" y="8" /><rect fill="rgb(255,140,140)" height="1" width="1" x="23" y="8" /><rect fill="rgb(255,140,140)" height="1" width="1" x="24" y="8" /><rect fill="rgb(255,84,84)" height="1" width="1" x="25" y="8" /><rect fill="rgb(255,84,84)" height="1" width="1" x="6" y="9" /><rect fill="rgb(255,140,140)" height="1" width="1" x="7" y="9" /><rect fill="rgb(255,140,140)" height="1" width="1" x="8" y="9" /><rect fill="rgb(255,140,140)" height="1" width="1" x="9" y="9" /><rect fill="rgb(255,140,140)" height="1" width="1" x="10" y="9" /><rect fill="rgb(255,140,140)" height="1" width="1" x="11" y="9" /><rect fill="rgb(255,140,140)" height="1" width="1" x="12" y="9" /><rect fill="rgb(255,140,140)" height="1" width="1" x="13" y="9" /><rect fill="rgb(255,140,140)" height="1" width="1" x="14" y="9" /><rect fill="rgb(255,140,140)" height="1" width="1" x="15" y="9" /><rect fill="rgb(255,140,140)" height="1" width="1" x="16" y="9" /><rect fill="rgb(255,140,140)" height="1" width="1" x="17" y="9" /><rect fill="rgb(255,140,140)" height="1" width="1" x="18" y="9" /><rect fill="rgb(255,140,140)" height="1" width="1" x="19" y="9" /><rect fill="rgb(255,140,140)" height="1" width="1" x="20" y="9" /><rect fill="rgb(255,140,140)" height="1" width="1" x="21" y="9" /><rect fill="rgb(255,140,140)" height="1" width="1" x="22" y="9" /><rect fill="rgb(255,140,140)" height="1" width="1" x="23" y="9" /><rect fill="rgb(255,140,140)" height="1" width="1" x="24" y="9" /><rect fill="rgb(255,84,84)" height="1" width="1" x="25" y="9" /><rect fill="rgb(255,84,84)" height="1" width="1" x="6" y="10" /><rect fill="rgb(255,140,140)" height="1" width="1" x="7" y="10" /><rect fill="rgb(255,140,140)" height="1" width="1" x="8" y="10" /><rect fill="rgb(255,140,140)" height="1" width="1" x="9" y="10" /><rect fill="rgb(255,140,140)" height="1" width="1" x="10" y="10" /><rect fill="rgb(255,140,140)" height="1" width="1" x="11" y="10" /><rect fill="rgb(255,140,140)" height="1" width="1" x="12" y="10" /><rect fill="rgb(255,140,140)" height="1" width="1" x="13" y="10" /><rect fill="rgb(255,140,140)" height="1" width="1" x="14" y="10" /><rect fill="rgb(255,140,140)" height="1" width="1" x="15" y="10" /><rect fill="rgb(255,140,140)" height="1" width="1" x="16" y="10" /><rect fill="rgb(255,140,140)" height="1" width="1" x="17" y="10" /><rect fill="rgb(255,140,140)" height="1" width="1" x="18" y="10" /><rect fill="rgb(255,140,140)" height="1" width="1" x="19" y="10" /><rect fill="rgb(255,140,140)" height="1" width="1" x="20" y="10" /><rect fill="rgb(255,140,140)" height="1" width="1" x="21" y="10" /><rect fill="rgb(255,140,140)" height="1" width="1" x="22" y="10" /><rect fill="rgb(255,140,140)" height="1" width="1" x="23" y="10" /><rect fill="rgb(255,140,140)" height="1" width="1" x="24" y="10" /><rect fill="rgb(255,84,84)" height="1" width="1" x="25" y="10" /><rect fill="rgb(255,84,84)" height="1" width="1" x="6" y="11" /><rect fill="rgb(255,140,140)" height="1" width="1" x="7" y="11" /><rect fill="rgb(255,140,140)" height="1" width="1" x="8" y="11" /><rect fill="rgb(255,140,140)" height="1" width="1" x="9" y="11" /><rect fill="rgb(255,140,140)" height="1" width="1" x="10" y="11" /><rect fill="rgb(255,140,140)" height="1" width="1" x="11" y="11" /><rect fill="rgb(255,140,140)" height="1" width="1" x="12" y="11" /><rect fill="rgb(255,140,140)" height="1" width="1" x="13" y="11" /><rect fill="rgb(255,140,140)" height="1" width="1" x="14" y="11" /><rect fill="rgb(255,140,140)" height="1" width="1" x="15" y="11" /><rect fill="rgb(255,140,140)" height="1" width="1" x="16" y="11" /><rect fill="rgb(255,140,140)" height="1" width="1" x="17" y="11" /><rect fill="rgb(255,140,140)" height="1" width="1" x="18" y="11" /><rect fill="rgb(255,140,140)" height="1" width="1" x="19" y="11" /><rect fill="rgb(255,140,140)" height="1" width="1" x="20" y="11" /><rect fill="rgb(255,140,140)" height="1" width="1" x="21" y="11" /><rect fill="rgb(255,140,140)" height="1" width="1" x="22" y="11" /><rect fill="rgb(255,140,140)" height="1" width="1" x="23" y="11" /><rect fill="rgb(255,140,140)" height="1" width="1" x="24" y="11" /><rect fill="rgb(255,84,84)" height="1" width="1" x="25" y="11" /><rect fill="rgb(255,84,84)" height="1" width="1" x="6" y="12" /><rect fill="rgb(255,140,140)" height="1" width="1" x="7" y="12" /><rect fill="rgb(255,140,140)" height="1" width="1" x="8" y="12" /><rect fill="rgb(255,140,140)" height="1" width="1" x="9" y="12" /><rect fill="rgb(255,140,140)" height="1" width="1" x="10" y="12" /><rect fill="rgb(255,140,140)" height="1" width="1" x="11" y="12" /><rect fill="rgb(255,140,140)" height="1" width="1" x="12" y="12" /><rect fill="rgb(255,140,140)" height="1" width="1" x="13" y="12" /><rect fill="rgb(255,140,140)" height="1" width="1" x="14" y="12" /><rect fill="rgb(255,140,140)" height="1" width="1" x="15" y="12" /><rect fill="rgb(255,140,140)" height="1" width="1" x="16" y="12" /><rect fill="rgb(255,140,140)" height="1" width="1" x="17" y="12" /><rect fill="rgb(255,140,140)" height="1" width="1" x="18" y="12" /><rect fill="rgb(255,140,140)" height="1" width="1" x="19" y="12" /><rect fill="rgb(255,140,140)" height="1" width="1" x="20" y="12" /><rect fill="rgb(255,140,140)" height="1" width="1" x="21" y="12" /><rect fill="rgb(255,140,140)" height="1" width="1" x="22" y="12" /><rect fill="rgb(255,140,140)" height="1" width="1" x="23" y="12" /><rect fill="rgb(255,140,140)" height="1" width="1" x="24" y="12" /><rect fill="rgb(255,84,84)" height="1" width="1" x="25" y="12" /><rect fill="rgb(255,84,84)" height="1" width="1" x="6" y="13" /><rect fill="rgb(255,140,140)" height="1" width="1" x="7" y="13" /><rect fill="rgb(255,140,140)" height="1" width="1" x="8" y="13" /><rect fill="rgb(255,140,140)" height="1" width="1" x="9" y="13" /><rect fill="rgb(255,140,140)" height="1" width="1" x="10" y="13" /><rect fill="rgb(0,0,0)" height="1" width="1" x="11" y="13" /><rect fill="rgb(0,0,0)" height="1" width="1" x="12" y="13" /><rect fill="rgb(0,0,0)" height="1" width="1" x="13" y="13" /><rect fill="rgb(0,0,0)" height="1" width="1" x="14" y="13" /><rect fill="rgb(255,140,140)" height="1" width="1" x="15" y="13" /><rect fill="rgb(255,140,140)" height="1" width="1" x="16" y="13" /><rect fill="rgb(255,140,140)" height="1" width="1" x="17" y="13" /><rect fill="rgb(255,140,140)" height="1" width="1" x="18" y="13" /><rect fill="rgb(255,140,140)" height="1" width="1" x="19" y="13" /><rect fill="rgb(255,140,140)" height="1" width="1" x="20" y="13" /><rect fill="rgb(0,0,0)" height="1" width="1" x="21" y="13" /><rect fill="rgb(0,0,0)" height="1" width="1" x="22" y="13" /><rect fill="rgb(0,0,0)" height="1" width="1" x="23" y="13" /><rect fill="rgb(0,0,0)" height="1" width="1" x="24" y="13" /><rect fill="rgb(255,84,84)" height="1" width="1" x="25" y="13" /><rect fill="rgb(255,84,84)" height="1" width="1" x="6" y="14" /><rect fill="rgb(255,140,140)" height="1" width="1" x="7" y="14" /><rect fill="rgb(255,140,140)" height="1" width="1" x="8" y="14" /><rect fill="rgb(255,140,140)" height="1" width="1" x="9" y="14" /><rect fill="rgb(255,140,140)" height="1" width="1" x="10" y="14" /><rect fill="rgb(0,0,0)" height="1" width="1" x="11" y="14" /><rect fill="rgb(0,0,0)" height="1" width="1" x="12" y="14" /><rect fill="rgb(0,0,0)" height="1" width="1" x="13" y="14" /><rect fill="rgb(0,0,0)" height="1" width="1" x="14" y="14" /><rect fill="rgb(255,140,140)" height="1" width="1" x="15" y="14" /><rect fill="rgb(255,140,140)" height="1" width="1" x="16" y="14" /><rect fill="rgb(255,140,140)" height="1" width="1" x="17" y="14" /><rect fill="rgb(255,140,140)" height="1" width="1" x="18" y="14" /><rect fill="rgb(255,140,140)" height="1" width="1" x="19" y="14" /><rect fill="rgb(255,140,140)" height="1" width="1" x="20" y="14" /><rect fill="rgb(0,0,0)" height="1" width="1" x="21" y="14" /><rect fill="rgb(0,0,0)" height="1" width="1" x="22" y="14" /><rect fill="rgb(0,0,0)" height="1" width="1" x="23" y="14" /><rect fill="rgb(0,0,0)" height="1" width="1" x="24" y="14" /><rect fill="rgb(255,84,84)" height="1" width="1" x="25" y="14" /><rect fill="rgb(255,84,84)" height="1" width="1" x="6" y="15" /><rect fill="rgb(255,140,140)" height="1" width="1" x="7" y="15" /><rect fill="rgb(255,140,140)" height="1" width="1" x="8" y="15" /><rect fill="rgb(255,140,140)" height="1" width="1" x="9" y="15" /><rect fill="rgb(255,140,140)" height="1" width="1" x="10" y="15" /><rect fill="rgb(0,0,0)" height="1" width="1" x="11" y="15" /><rect fill="rgb(0,0,0)" height="1" width="1" x="12" y="15" /><rect fill="rgb(0,0,0)" height="1" width="1" x="13" y="15" /><rect fill="rgb(0,0,0)" height="1" width="1" x="14" y="15" /><rect fill="rgb(255,140,140)" height="1" width="1" x="15" y="15" /><rect fill="rgb(255,140,140)" height="1" width="1" x="16" y="15" /><rect fill="rgb(255,140,140)" height="1" width="1" x="17" y="15" /><rect fill="rgb(255,140,140)" height="1" width="1" x="18" y="15" /><rect fill="rgb(255,140,140)" height="1" width="1" x="19" y="15" /><rect fill="rgb(255,140,140)" height="1" width="1" x="20" y="15" /><rect fill="rgb(0,0,0)" height="1" width="1" x="21" y="15" /><rect fill="rgb(0,0,0)" height="1" width="1" x="22" y="15" /><rect fill="rgb(0,0,0)" height="1" width="1" x="23" y="15" /><rect fill="rgb(0,0,0)" height="1" width="1" x="24" y="15" /><rect fill="rgb(255,84,84)" height="1" width="1" x="25" y="15" /><rect fill="rgb(255,84,84)" height="1" width="1" x="6" y="16" /><rect fill="rgb(255,140,140)" height="1" width="1" x="7" y="16" /><rect fill="rgb(255,140,140)" height="1" width="1" x="8" y="16" /><rect fill="rgb(255,140,140)" height="1" width="1" x="9" y="16" /><rect fill="rgb(255,140,140)" height="1" width="1" x="10" y="16" /><rect fill="rgb(0,0,0)" height="1" width="1" x="11" y="16" /><rect fill="rgb(0,0,0)" height="1" width="1" x="12" y="16" /><rect fill="rgb(0,0,0)" height="1" width="1" x="13" y="16" /><rect fill="rgb(0,0,0)" height="1" width="1" x="14" y="16" /><rect fill="rgb(255,140,140)" height="1" width="1" x="15" y="16" /><rect fill="rgb(255,140,140)" height="1" width="1" x="16" y="16" /><rect fill="rgb(255,140,140)" height="1" width="1" x="17" y="16" /><rect fill="rgb(255,140,140)" height="1" width="1" x="18" y="16" /><rect fill="rgb(255,140,140)" height="1" width="1" x="19" y="16" /><rect fill="rgb(255,140,140)" height="1" width="1" x="20" y="16" /><rect fill="rgb(0,0,0)" height="1" width="1" x="21" y="16" /><rect fill="rgb(0,0,0)" height="1" width="1" x="22" y="16" /><rect fill="rgb(0,0,0)" height="1" width="1" x="23" y="16" /><rect fill="rgb(0,0,0)" height="1" width="1" x="24" y="16" /><rect fill="rgb(255,84,84)" height="1" width="1" x="25" y="16" /><rect fill="rgb(255,84,84)" height="1" width="1" x="6" y="17" /><rect fill="rgb(255,140,140)" height="1" width="1" x="7" y="17" /><rect fill="rgb(255,140,140)" height="1" width="1" x="8" y="17" /><rect fill="rgb(255,140,140)" height="1" width="1" x="9" y="17" /><rect fill="rgb(255,140,140)" height="1" width="1" x="10" y="17" /><rect fill="rgb(255,140,140)" height="1" width="1" x="11" y="17" /><rect fill="rgb(255,140,140)" height="1" width="1" x="12" y="17" /><rect fill="rgb(255,140,140)" height="1" width="1" x="13" y="17" /><rect fill="rgb(255,140,140)" height="1" width="1" x="14" y="17" /><rect fill="rgb(255,140,140)" height="1" width="1" x="15" y="17" /><rect fill="rgb(255,140,140)" height="1" width="1" x="16" y="17" /><rect fill="rgb(255,140,140)" height="1" width="1" x="17" y="17" /><rect fill="rgb(255,140,140)" height="1" width="1" x="18" y="17" /><rect fill="rgb(255,140,140)" height="1" width="1" x="19" y="17" /><rect fill="rgb(255,140,140)" height="1" width="1" x="20" y="17" /><rect fill="rgb(255,140,140)" height="1" width="1" x="21" y="17" /><rect fill="rgb(255,140,140)" height="1" width="1" x="22" y="17" /><rect fill="rgb(255,140,140)" height="1" width="1" x="23" y="17" /><rect fill="rgb(255,140,140)" height="1" width="1" x="24" y="17" /><rect fill="rgb(255,84,84)" height="1" width="1" x="25" y="17" /><rect fill="rgb(255,84,84)" height="1" width="1" x="6" y="18" /><rect fill="rgb(255,140,140)" height="1" width="1" x="7" y="18" /><rect fill="rgb(255,140,140)" height="1" width="1" x="8" y="18" /><rect fill="rgb(255,140,140)" height="1" width="1" x="9" y="18" /><rect fill="rgb(255,140,140)" height="1" width="1" x="10" y="18" /><rect fill="rgb(255,140,140)" height="1" width="1" x="11" y="18" /><rect fill="rgb(255,140,140)" height="1" width="1" x="12" y="18" /><rect fill="rgb(255,140,140)" height="1" width="1" x="13" y="18" /><rect fill="rgb(255,140,140)" height="1" width="1" x="14" y="18" /><rect fill="rgb(255,140,140)" height="1" width="1" x="15" y="18" /><rect fill="rgb(255,140,140)" height="1" width="1" x="16" y="18" /><rect fill="rgb(255,140,140)" height="1" width="1" x="17" y="18" /><rect fill="rgb(255,140,140)" height="1" width="1" x="18" y="18" /><rect fill="rgb(255,140,140)" height="1" width="1" x="19" y="18" /><rect fill="rgb(255,140,140)" height="1" width="1" x="20" y="18" /><rect fill="rgb(255,140,140)" height="1" width="1" x="21" y="18" /><rect fill="rgb(255,140,140)" height="1" width="1" x="22" y="18" /><rect fill="rgb(255,140,140)" height="1" width="1" x="23" y="18" /><rect fill="rgb(255,140,140)" height="1" width="1" x="24" y="18" /><rect fill="rgb(255,84,84)" height="1" width="1" x="25" y="18" /><rect fill="rgb(255,84,84)" height="1" width="1" x="6" y="19" /><rect fill="rgb(255,84,84)" height="1" width="1" x="7" y="19" /><rect fill="rgb(255,84,84)" height="1" width="1" x="8" y="19" /><rect fill="rgb(255,84,84)" height="1" width="1" x="9" y="19" /><rect fill="rgb(255,84,84)" height="1" width="1" x="10" y="19" /><rect fill="rgb(255,84,84)" height="1" width="1" x="11" y="19" /><rect fill="rgb(255,84,84)" height="1" width="1" x="12" y="19" /><rect fill="rgb(255,140,140)" height="1" width="1" x="13" y="19" /><rect fill="rgb(255,140,140)" height="1" width="1" x="14" y="19" /><rect fill="rgb(255,140,140)" height="1" width="1" x="15" y="19" /><rect fill="rgb(255,140,140)" height="1" width="1" x="16" y="19" /><rect fill="rgb(255,140,140)" height="1" width="1" x="17" y="19" /><rect fill="rgb(255,140,140)" height="1" width="1" x="18" y="19" /><rect fill="rgb(255,140,140)" height="1" width="1" x="19" y="19" /><rect fill="rgb(255,84,84)" height="1" width="1" x="20" y="19" /><rect fill="rgb(255,84,84)" height="1" width="1" x="21" y="19" /><rect fill="rgb(255,84,84)" height="1" width="1" x="22" y="19" /><rect fill="rgb(255,84,84)" height="1" width="1" x="23" y="19" /><rect fill="rgb(255,84,84)" height="1" width="1" x="24" y="19" /><rect fill="rgb(255,84,84)" height="1" width="1" x="25" y="19" /><rect fill="rgb(255,84,84)" height="1" width="1" x="12" y="20" /><rect fill="rgb(255,140,140)" height="1" width="1" x="13" y="20" /><rect fill="rgb(255,140,140)" height="1" width="1" x="14" y="20" /><rect fill="rgb(255,140,140)" height="1" width="1" x="15" y="20" /><rect fill="rgb(255,140,140)" height="1" width="1" x="16" y="20" /><rect fill="rgb(255,140,140)" height="1" width="1" x="17" y="20" /><rect fill="rgb(255,140,140)" height="1" width="1" x="18" y="20" /><rect fill="rgb(255,140,140)" height="1" width="1" x="19" y="20" /><rect fill="rgb(255,84,84)" height="1" width="1" x="20" y="20" /><rect fill="rgb(255,84,84)" height="1" width="1" x="12" y="21" /><rect fill="rgb(255,140,140)" height="1" width="1" x="13" y="21" /><rect fill="rgb(255,140,140)" height="1" width="1" x="14" y="21" /><rect fill="rgb(255,140,140)" height="1" width="1" x="15" y="21" /><rect fill="rgb(255,140,140)" height="1" width="1" x="16" y="21" /><rect fill="rgb(255,140,140)" height="1" width="1" x="17" y="21" /><rect fill="rgb(255,140,140)" height="1" width="1" x="18" y="21" /><rect fill="rgb(255,140,140)" height="1" width="1" x="19" y="21" /><rect fill="rgb(255,84,84)" height="1" width="1" x="20" y="21" /><rect fill="rgb(255,84,84)" height="1" width="1" x="12" y="22" /><rect fill="rgb(254,254,254)" height="1" width="1" x="13" y="22" /><rect fill="rgb(254,254,254)" height="1" width="1" x="14" y="22" /><rect fill="rgb(255,140,140)" height="1" width="1" x="15" y="22" /><rect fill="rgb(255,140,140)" height="1" width="1" x="16" y="22" /><rect fill="rgb(255,140,140)" height="1" width="1" x="17" y="22" /><rect fill="rgb(255,140,140)" height="1" width="1" x="18" y="22" /><rect fill="rgb(254,254,254)" height="1" width="1" x="19" y="22" /><rect fill="rgb(255,84,84)" height="1" width="1" x="20" y="22" /><rect fill="rgb(255,84,84)" height="1" width="1" x="12" y="23" /><rect fill="rgb(254,254,254)" height="1" width="1" x="13" y="23" /><rect fill="rgb(254,254,254)" height="1" width="1" x="14" y="23" /><rect fill="rgb(255,140,140)" height="1" width="1" x="15" y="23" /><rect fill="rgb(255,140,140)" height="1" width="1" x="16" y="23" /><rect fill="rgb(255,140,140)" height="1" width="1" x="17" y="23" /><rect fill="rgb(255,140,140)" height="1" width="1" x="18" y="23" /><rect fill="rgb(254,254,254)" height="1" width="1" x="19" y="23" /><rect fill="rgb(255,84,84)" height="1" width="1" x="20" y="23" /><rect fill="rgb(255,84,84)" height="1" width="1" x="12" y="24" /><rect fill="rgb(255,140,140)" height="1" width="1" x="13" y="24" /><rect fill="rgb(255,140,140)" height="1" width="1" x="14" y="24" /><rect fill="rgb(255,140,140)" height="1" width="1" x="15" y="24" /><rect fill="rgb(255,140,140)" height="1" width="1" x="16" y="24" /><rect fill="rgb(255,140,140)" height="1" width="1" x="17" y="24" /><rect fill="rgb(255,140,140)" height="1" width="1" x="18" y="24" /><rect fill="rgb(255,84,84)" height="1" width="1" x="19" y="24" /><rect fill="rgb(255,84,84)" height="1" width="1" x="20" y="24" /><rect fill="rgb(255,84,84)" height="1" width="1" x="12" y="25" /><rect fill="rgb(255,140,140)" height="1" width="1" x="13" y="25" /><rect fill="rgb(255,140,140)" height="1" width="1" x="14" y="25" /><rect fill="rgb(255,84,84)" height="1" width="1" x="15" y="25" /><rect fill="rgb(255,84,84)" height="1" width="1" x="16" y="25" /><rect fill="rgb(255,140,140)" height="1" width="1" x="17" y="25" /><rect fill="rgb(255,140,140)" height="1" width="1" x="18" y="25" /><rect fill="rgb(255,84,84)" height="1" width="1" x="19" y="25" /><rect fill="rgb(255,84,84)" height="1" width="1" x="12" y="26" /><rect fill="rgb(255,140,140)" height="1" width="1" x="13" y="26" /><rect fill="rgb(255,140,140)" height="1" width="1" x="14" y="26" /><rect fill="rgb(255,84,84)" height="1" width="1" x="15" y="26" /><rect fill="rgb(255,84,84)" height="1" width="1" x="16" y="26" /><rect fill="rgb(255,140,140)" height="1" width="1" x="17" y="26" /><rect fill="rgb(255,140,140)" height="1" width="1" x="18" y="26" /><rect fill="rgb(255,84,84)" height="1" width="1" x="19" y="26" /><rect fill="rgb(255,84,84)" height="1" width="1" x="12" y="27" /><rect fill="rgb(255,84,84)" height="1" width="1" x="13" y="27" /><rect fill="rgb(255,84,84)" height="1" width="1" x="14" y="27" /><rect fill="rgb(255,84,84)" height="1" width="1" x="15" y="27" /><rect fill="rgb(255,84,84)" height="1" width="1" x="16" y="27" /><rect fill="rgb(255,84,84)" height="1" width="1" x="17" y="27" /><rect fill="rgb(255,84,84)" height="1" width="1" x="18" y="27" /><rect fill="rgb(255,84,84)" height="1" width="1" x="19" y="27" /><rect fill="rgb(255,84,84)" height="1" width="1" x="12" y="28" /><rect fill="rgb(255,84,84)" height="1" width="1" x="13" y="28" /><rect fill="rgb(255,84,84)" height="1" width="1" x="14" y="28" /><rect fill="rgb(255,84,84)" height="1" width="1" x="15" y="28" /><rect fill="rgb(255,84,84)" height="1" width="1" x="16" y="28" /><rect fill="rgb(255,84,84)" height="1" width="1" x="17" y="28" /><rect fill="rgb(255,84,84)" height="1" width="1" x="18" y="28" /><rect fill="rgb(255,84,84)" height="1" width="1" x="19" y="28" /></svg>